<svg width="23" height="17" viewBox="0 0 23 17" fill="none" xmlns="http://www.w3.org/2000/svg">
<path d="M22.1839 6.22924H20.0854V4.15283C20.0854 3.82505 19.8171 3.55957 19.4858 3.55957H18.8863C18.555 3.55957 18.2867 3.82505 18.2867 4.15283V6.22924H16.1882C15.8569 6.22924 15.5886 6.49473 15.5886 6.8225V7.41576C15.5886 7.74354 15.8569 8.00902 16.1882 8.00902H18.2867V10.0854C18.2867 10.4132 18.555 10.6787 18.8863 10.6787H19.4858C19.8171 10.6787 20.0854 10.4132 20.0854 10.0854V8.00902H22.1839C22.5152 8.00902 22.7835 7.74354 22.7835 7.41576V6.8225C22.7835 6.49473 22.5152 6.22924 22.1839 6.22924Z" fill="black"/>
<path d="M5.34715 7.34825C6.00697 7.34825 6.61164 7.04658 7.10089 6.58294C6.58796 5.67674 6.29477 4.65128 6.29477 3.66736C6.29477 2.83294 6.49922 2.04598 6.85897 1.35098C6.41288 1.08164 5.89156 0.923828 5.33216 0.923828C3.69742 0.923828 2.37207 2.24799 2.37207 3.88123C2.37177 5.51389 3.71211 7.34825 5.34715 7.34825Z" fill="black"/>
<path d="M7.33846 8.75079C7.04946 8.68939 6.75058 8.65527 6.443 8.65527H4.24167C1.89914 8.65557 0 10.5321 0 12.8467L0.00989293 13.3423C0.00989293 13.989 0.540514 14.5134 1.19495 14.5134H3.3654C3.47212 11.9381 5.07477 9.74242 7.33846 8.75079Z" fill="black"/>
<path d="M11.4053 7.9666C13.4324 7.9666 15.0573 5.69204 15.0573 3.66694C15.057 1.64185 13.4135 0 11.3864 0C9.35925 0 7.71582 1.64185 7.71582 3.66694C7.71612 5.69233 9.37813 7.9666 11.4053 7.9666Z" fill="black"/>
<path d="M18.0236 14.7849C18.0236 11.9147 15.6688 9.58789 12.7641 9.58789H10.0346C7.12967 9.58789 4.77515 11.9147 4.77515 14.7849L4.78774 15.3995C4.78774 16.2013 5.44577 16.8515 6.25729 16.8515H16.5669C17.3784 16.8515 18.0365 16.2013 18.0365 15.3995L18.0236 14.7849Z" fill="black"/>
</svg>
