<svg width="640" height="512" viewBox="0 0 640 512" fill="none" xmlns="http://www.w3.org/2000/svg">
<g clip-path="url(#clip0)">
<path d="M634 471L36 3.51001C34.3598 2.19679 32.477 1.21949 30.4591 0.633915C28.4412 0.0483398 26.3277 -0.134045 24.2393 0.0971725C22.1509 0.32839 20.1285 0.968683 18.2876 1.98149C16.4466 2.9943 14.8232 4.35979 13.51 6.00001L3.51001 18.49C2.19371 20.1308 1.21386 22.015 0.626544 24.0349C0.0392257 26.0547 -0.144039 28.1706 0.0872359 30.2613C0.318511 32.3521 0.959787 34.3767 1.97437 36.2194C2.98895 38.0621 4.35692 39.6866 6.00001 41L604 508.49C605.64 509.803 607.523 510.781 609.541 511.366C611.559 511.952 613.672 512.134 615.761 511.903C617.849 511.672 619.871 511.031 621.712 510.019C623.553 509.006 625.177 507.64 626.49 506L636.49 493.51C637.806 491.869 638.786 489.985 639.373 487.965C639.961 485.945 640.144 483.829 639.913 481.739C639.682 479.648 639.04 477.623 638.026 475.781C637.011 473.938 635.643 472.313 634 471V471ZM296.79 146.47L431.58 251.85C429.36 191.91 380.48 144 320 144C312.199 144.015 304.42 144.842 296.79 146.47ZM343.21 365.54L208.42 260.16C210.65 320.09 259.53 368 320 368C327.801 367.983 335.579 367.159 343.21 365.54V365.54ZM320 112C418.65 112 509.09 167 557.93 256C545.958 277.904 531.165 298.143 513.93 316.2L551.67 345.7C572.682 323.222 590.484 297.946 604.57 270.59C606.858 266.065 608.049 261.065 608.049 255.995C608.049 250.925 606.858 245.925 604.57 241.4C550.29 135.59 442.93 64 320 64C283.3 64 248.29 71 215.37 82.81L261.78 119.1C280.72 114.8 300.12 112 320 112ZM320 400C221.35 400 130.92 345 82.07 256C94.0578 234.097 108.868 213.861 126.12 195.81L88.38 166.31C67.3715 188.785 49.5728 214.058 35.49 241.41C33.2024 245.935 32.0106 250.935 32.0106 256.005C32.0106 261.075 33.2024 266.075 35.49 270.6C89.72 376.41 197.08 448 320 448C356.7 448 391.71 440.95 424.63 429.19L378.22 392.91C359.28 397.2 339.89 400 320 400Z" fill="#C4C3C3"/>
</g>
<defs>
<clipPath id="clip0">
<rect width="640" height="512" fill="white"/>
</clipPath>
</defs>
</svg>
