<svg width="176" height="171" viewBox="0 0 176 171" fill="none" xmlns="http://www.w3.org/2000/svg">
<path d="M88 8.70833C93.3167 8.70833 97.625 13.0167 97.625 18.3333C97.625 23.65 93.3167 27.9583 88 27.9583C82.6834 27.9583 78.375 23.65 78.375 18.3333C78.375 13.0167 82.6834 8.70833 88 8.70833ZM88 49.9583C101.613 49.9583 115.958 56.65 115.958 59.5833V64.625H60.0417V59.5833C60.0417 56.65 74.3875 49.9583 88 49.9583ZM88 0C77.8709 0 69.6667 8.20417 69.6667 18.3333C69.6667 28.4625 77.8709 36.6667 88 36.6667C98.1292 36.6667 106.333 28.4625 106.333 18.3333C106.333 8.20417 98.1292 0 88 0ZM88 41.25C75.7625 41.25 51.3334 47.3917 51.3334 59.5833V73.3333H124.667V59.5833C124.667 47.3917 100.238 41.25 88 41.25Z" fill="#DAE5FD"/>
<path d="M37 105.708C42.3167 105.708 46.625 110.017 46.625 115.333C46.625 120.65 42.3167 124.958 37 124.958C31.6834 124.958 27.375 120.65 27.375 115.333C27.375 110.017 31.6834 105.708 37 105.708ZM37 146.958C50.6125 146.958 64.9584 153.65 64.9584 156.583V161.625H9.04171V156.583C9.04171 153.65 23.3875 146.958 37 146.958ZM37 97C26.8709 97 18.6667 105.204 18.6667 115.333C18.6667 125.462 26.8709 133.667 37 133.667C47.1292 133.667 55.3334 125.462 55.3334 115.333C55.3334 105.204 47.1292 97 37 97ZM37 138.25C24.7625 138.25 0.333374 144.392 0.333374 156.583V170.333H73.6667V156.583C73.6667 144.392 49.2375 138.25 37 138.25Z" fill="#DAE5FD"/>
<path d="M139 105.708C144.317 105.708 148.625 110.017 148.625 115.333C148.625 120.65 144.317 124.958 139 124.958C133.683 124.958 129.375 120.65 129.375 115.333C129.375 110.017 133.683 105.708 139 105.708ZM139 146.958C152.613 146.958 166.958 153.65 166.958 156.583V161.625H111.042V156.583C111.042 153.65 125.388 146.958 139 146.958ZM139 97C128.871 97 120.667 105.204 120.667 115.333C120.667 125.462 128.871 133.667 139 133.667C149.129 133.667 157.333 125.462 157.333 115.333C157.333 105.204 149.129 97 139 97ZM139 138.25C126.763 138.25 102.333 144.392 102.333 156.583V170.333H175.667V156.583C175.667 144.392 151.238 138.25 139 138.25Z" fill="#DAE5FD"/>
<path fill-rule="evenodd" clip-rule="evenodd" d="M159.933 89.8104C159.977 88.7681 160 87.72 160 86.6667C160 85.6133 159.977 84.5653 159.933 83.5229L154.937 83.7375C154.979 84.7084 155 85.6849 155 86.6667C155 87.6484 154.979 88.625 154.937 89.5958L159.933 89.8104ZM159.391 96.0705L154.433 95.4238C154.18 97.3703 153.842 99.29 153.425 101.179L158.308 102.257C158.756 100.226 159.119 98.1623 159.391 96.0705ZM103.59 156.974L102.513 152.092C100.623 152.509 98.7036 152.846 96.7571 153.1L97.4039 158.058C99.4956 157.785 101.559 157.423 103.59 156.974ZM91.1437 158.599L90.9291 153.604C89.9583 153.646 88.9818 153.667 88 153.667C87.0182 153.667 86.0417 153.646 85.0708 153.604L84.8562 158.599C85.8986 158.644 86.9466 158.667 88 158.667C89.0534 158.667 90.1014 158.644 91.1437 158.599ZM78.5961 158.058L79.2428 153.1C77.2964 152.846 75.3767 152.509 73.4874 152.092L72.4096 156.974C74.4409 157.423 76.5044 157.785 78.5961 158.058ZM17.6925 102.257L22.5749 101.179C22.1578 99.29 21.8205 97.3703 21.5666 95.4238L16.6086 96.0705C16.8814 98.1623 17.244 100.226 17.6925 102.257ZM16.0674 89.8104C16.0226 88.7681 16 87.72 16 86.6667C16 85.6133 16.0226 84.5652 16.0674 83.5229L21.0628 83.7375C21.0211 84.7084 21 85.6849 21 86.6667C21 87.6484 21.0211 88.6249 21.0628 89.5958L16.0674 89.8104ZM16.6086 77.2628L21.5666 77.9095C21.8205 75.963 22.1578 74.0434 22.5749 72.154L17.6925 71.0762C17.244 73.1075 16.8814 75.171 16.6086 77.2628ZM19.3142 65.0092L24.0832 66.5115C24.6712 64.6449 25.3388 62.8135 26.082 61.0212L21.4634 59.1059C20.6643 61.0329 19.9465 63.0021 19.3142 65.0092ZM24.1221 53.4139L28.5552 55.7264C29.4587 53.9944 30.4357 52.3066 31.4824 50.6671L27.2679 47.9767C26.1433 49.7384 25.0932 51.5523 24.1221 53.4139ZM30.8752 42.8342L34.8398 45.8808C36.0288 44.3336 37.284 42.8396 38.601 41.4031L34.9155 38.0242C33.5008 39.5672 32.1526 41.172 30.8752 42.8342ZM39.3575 33.5821L42.7364 37.2676C44.1729 35.9506 45.6669 34.6955 47.2142 33.5065L44.1675 29.5419C42.5053 30.8192 40.9005 32.1675 39.3575 33.5821ZM49.31 25.9346L52.0005 30.149C53.6399 29.1024 55.3277 28.1253 57.0597 27.2219L54.7473 22.7888C52.8856 23.7599 51.0717 24.8099 49.31 25.9346ZM60.4393 20.1301L62.3545 24.7487C64.1468 24.0055 65.9782 23.3379 67.8449 22.7499L66.3426 17.9809C64.3354 18.6132 62.3662 19.331 60.4393 20.1301ZM109.657 17.9809L108.155 22.7499C110.022 23.3379 111.853 24.0055 113.645 24.7487L115.561 20.1301C113.634 19.331 111.665 18.6132 109.657 17.9809ZM121.253 22.7888L118.94 27.2219C120.672 28.1253 122.36 29.1024 124 30.149L126.69 25.9346C124.928 24.8099 123.114 23.7598 121.253 22.7888ZM131.832 29.5419L128.786 33.5065C130.333 34.6955 131.827 35.9506 133.264 37.2676L136.643 33.5821C135.1 32.1675 133.495 30.8192 131.832 29.5419ZM141.085 38.0242L137.399 41.4031C138.716 42.8396 139.971 44.3336 141.16 45.8808L145.125 42.8342C143.847 41.172 142.499 39.5671 141.085 38.0242ZM148.732 47.9767L144.518 50.6671C145.564 52.3066 146.541 53.9944 147.445 55.7264L151.878 53.4139C150.907 51.5523 149.857 49.7384 148.732 47.9767ZM154.537 59.1059L149.918 61.0212C150.661 62.8135 151.329 64.6449 151.917 66.5115L156.686 65.0092C156.053 63.0021 155.336 61.0329 154.537 59.1059ZM158.308 71.0763L153.425 72.1541C153.842 74.0434 154.18 75.9631 154.433 77.9095L159.391 77.2628C159.119 75.1711 158.756 73.1076 158.308 71.0763Z" fill="#DAE5FD"/>
</svg>
