<svg width="15" height="15" viewBox="0 0 15 15" fill="none" xmlns="http://www.w3.org/2000/svg">
<path d="M14.9537 2.51348L13.4963 0.148655C13.4395 0.056248 13.3388 0 13.2303 0C13.1218 0 13.0211 0.056248 12.9643 0.148655L11.5067 2.51375C11.4764 2.56303 11.4603 2.61982 11.4603 2.67767V3.77317H9.27037V2.67767C9.27037 2.61982 9.2543 2.56303 9.22403 2.51375L7.76611 0.148655C7.70933 0.056248 7.60861 0 7.50013 0C7.39165 0 7.29094 0.056248 7.23416 0.148655L5.7765 2.51375C5.74624 2.56303 5.73017 2.61982 5.73017 2.67767V3.77317H3.5402V2.67767C3.5402 2.61982 3.52413 2.56303 3.49387 2.51375L2.03595 0.148655C1.97916 0.056248 1.87845 0 1.76997 0C1.66149 0 1.56078 0.056248 1.50399 0.148655L0.0463385 2.51348C0.0160711 2.56277 0 2.61955 0 2.6774V14.6874C0 14.8599 0.139819 15 0.312584 15H3.22735C3.39985 15 3.53994 14.8602 3.53994 14.6874V13.4363H5.7299V14.6874C5.7299 14.8599 5.86972 15 6.04248 15H8.95752C9.13002 15 9.2701 14.8602 9.2701 14.6874V13.4363H11.4601V14.6874C11.4601 14.8599 11.5999 15 11.7726 15H14.6877C14.8602 15 15.0003 14.8602 15.0003 14.6874V2.6774C15.0003 2.61955 14.9842 2.56277 14.9539 2.51348H14.9537ZM9.2701 7.21447H11.4601V9.9942H9.2701V7.21447ZM11.4601 4.39806V6.58959H9.2701V4.39806H11.4601ZM3.53994 7.21447H5.7299V9.9942H3.53994V7.21447ZM5.7299 4.39806V6.58959H3.53994V4.39806H5.7299ZM2.91477 14.3748H0.6249V2.76606L1.76997 0.908003L2.91504 2.76579V14.3746L2.91477 14.3748ZM3.53967 12.8111V10.6194H5.72963V12.8111H3.53967ZM6.3548 14.3748V2.76606L7.49987 0.908003L8.64493 2.76606V6.9019V10.3068V13.1237V14.3751H6.3548V14.3748ZM9.26983 12.8111V10.6194H11.4598V12.8111H9.26983ZM14.3748 14.3748H12.085V2.76606L13.23 0.908271L14.3748 2.76606V14.3748Z" fill="#284CE0"/>
</svg>
