<svg width="14" height="16" viewBox="0 0 14 16" fill="none" xmlns="http://www.w3.org/2000/svg">
<path d="M11.5 11.0903C10.93 11.0903 10.42 11.3153 10.03 11.6678L4.6825 8.55527C4.72 8.38277 4.75 8.21027 4.75 8.03027C4.75 7.85027 4.72 7.67777 4.6825 7.50527L9.97 4.42277C10.375 4.79777 10.9075 5.03027 11.5 5.03027C12.745 5.03027 13.75 4.02527 13.75 2.78027C13.75 1.53527 12.745 0.530273 11.5 0.530273C10.255 0.530273 9.25 1.53527 9.25 2.78027C9.25 2.96027 9.28 3.13277 9.3175 3.30527L4.03 6.38777C3.625 6.01277 3.0925 5.78027 2.5 5.78027C1.255 5.78027 0.25 6.78527 0.25 8.03027C0.25 9.27527 1.255 10.2803 2.5 10.2803C3.0925 10.2803 3.625 10.0478 4.03 9.67277L9.37 12.7928C9.3325 12.9503 9.31 13.1153 9.31 13.2803C9.31 14.4878 10.2925 15.4703 11.5 15.4703C12.7075 15.4703 13.69 14.4878 13.69 13.2803C13.69 12.0728 12.7075 11.0903 11.5 11.0903ZM11.5 2.03027C11.9125 2.03027 12.25 2.36777 12.25 2.78027C12.25 3.19277 11.9125 3.53027 11.5 3.53027C11.0875 3.53027 10.75 3.19277 10.75 2.78027C10.75 2.36777 11.0875 2.03027 11.5 2.03027ZM2.5 8.78027C2.0875 8.78027 1.75 8.44277 1.75 8.03027C1.75 7.61777 2.0875 7.28027 2.5 7.28027C2.9125 7.28027 3.25 7.61777 3.25 8.03027C3.25 8.44277 2.9125 8.78027 2.5 8.78027ZM11.5 14.0453C11.0875 14.0453 10.75 13.7078 10.75 13.2953C10.75 12.8828 11.0875 12.5453 11.5 12.5453C11.9125 12.5453 12.25 12.8828 12.25 13.2953C12.25 13.7078 11.9125 14.0453 11.5 14.0453Z" fill="#616568"/>
</svg>
