<svg width="14" height="14" viewBox="0 0 14 14" fill="none" xmlns="http://www.w3.org/2000/svg">
<path d="M6.12481 6.85417C7.41398 6.85417 8.45814 5.81 8.45814 4.52083C8.45814 3.23167 7.41398 2.1875 6.12481 2.1875C4.83564 2.1875 3.79148 3.23167 3.79148 4.52083C3.79148 5.81 4.83564 6.85417 6.12481 6.85417ZM6.12481 3.35417C6.76648 3.35417 7.29148 3.87917 7.29148 4.52083C7.29148 5.1625 6.76648 5.6875 6.12481 5.6875C5.48314 5.6875 4.95814 5.1625 4.95814 4.52083C4.95814 3.87917 5.48314 3.35417 6.12481 3.35417ZM2.62481 10.3542C2.74148 9.98667 4.12398 9.37417 5.51814 9.2225L6.70814 8.05583C6.48064 8.0325 6.31148 8.02083 6.12481 8.02083C4.56731 8.02083 1.45815 8.8025 1.45815 10.3542V11.5208H6.70814L5.54148 10.3542H2.62481ZM11.7248 7.14583L8.73231 10.1617L7.52481 8.94833L6.70814 9.77083L8.73231 11.8125L12.5415 7.96833L11.7248 7.14583Z" fill="#616568"/>
</svg>
