<svg xmlns="http://www.w3.org/2000/svg" xmlns:xlink="http://www.w3.org/1999/xlink" width="52" height="52" viewBox="0 0 52 52">
  <defs>
    <clipPath id="clip-path">
      <circle id="Ellipse_23" data-name="Ellipse 23" cx="25" cy="25" r="25" transform="translate(0.298 0.197)" fill="none"/>
    </clipPath>
    <linearGradient id="linear-gradient" x1="0.5" x2="0.5" y2="1" gradientUnits="objectBoundingBox">
      <stop offset="0" stop-color="#549fff"/>
      <stop offset="1" stop-color="#3e84fb"/>
    </linearGradient>
    <clipPath id="clip-path-2">
      <path id="Path_73" data-name="Path 73" d="M31.263,17.056,38.322,11.9c.616-.5,1.086-.386,1.086.543v15.73c0,1.043-.586.923-1.086.543l-7.059-5.158ZM7.372,12.479V24.207A4.8,4.8,0,0,0,12.2,28.985H29.3a.874.874,0,0,0,.877-.869V16.388a4.8,4.8,0,0,0-4.824-4.778H8.249a.874.874,0,0,0-.877.869Z" transform="translate(-7.372 -11.604)" fill="none"/>
    </clipPath>
    <clipPath id="clip-zoom-icon">
      <rect width="52" height="52"/>
    </clipPath>
  </defs>
  <g id="zoom-icon" clip-path="url(#clip-zoom-icon)">
    <g id="Group_515" data-name="Group 515" transform="translate(0.702 0.803)">
      <g id="Group_467" data-name="Group 467" transform="translate(0 0)" clip-path="url(#clip-path)">
        <path id="Path_71" data-name="Path 71" d="M1.569,1.412H54.115V53.959H1.569Z" transform="translate(-1.993 -2.406)" fill="url(#linear-gradient)"/>
      </g>
      <g id="Group_468" data-name="Group 468" transform="translate(9.563 16.585)" clip-path="url(#clip-path-2)">
        <path id="Path_72" data-name="Path 72" d="M6.588,10.823h34.75v20.09H6.588Z" transform="translate(-7.946 -12.175)" fill="#fff"/>
      </g>
    </g>
  </g>
</svg>
